<svg width="32" height="32" viewBox="0 0 32 32" fill="none" xmlns="http://www.w3.org/2000/svg">
<g clip-path="url(#clip0_161_2)">
<rect width="32" height="32" fill="black"/>
<path d="M10.6695 4.728L17.1335 4.92L23.5975 4.728C23.9388 4.728 24.2375 4.84533 24.4935 5.08C24.7708 5.29333 24.9095 5.592 24.9095 5.976C24.9095 6.36 24.7708 6.66933 24.4935 6.904C24.2375 7.11733 23.9388 7.224 23.5975 7.224L17.1335 7.032C16.5788 7.032 15.6828 7.05333 14.4455 7.096C14.2962 10.232 14.2108 12.76 14.1895 14.68C15.2988 14.7653 16.3335 14.808 17.2935 14.808C18.2748 14.808 19.2668 14.776 20.2695 14.712C21.2935 14.648 21.9122 14.616 22.1255 14.616C22.3602 14.616 22.5842 14.7227 22.7975 14.936C23.0108 15.1493 23.1175 15.4267 23.1175 15.768C23.1175 16.1093 23.0108 16.3973 22.7975 16.632C22.5842 16.8453 22.3068 16.952 21.9655 16.952L17.5175 16.792C16.4082 16.792 15.2988 16.8347 14.1895 16.92C14.2108 18.7333 14.2642 20.5467 14.3495 22.36C14.4348 24.152 14.4775 25.24 14.4775 25.624C14.4775 25.9867 14.3282 26.3387 14.0295 26.68C13.7522 27.0213 13.3895 27.192 12.9415 27.192C12.4935 27.192 12.1202 27.0213 11.8215 26.68C11.5442 26.3387 11.4055 25.9973 11.4055 25.656C11.4055 25.3147 11.4482 24.1307 11.5335 22.104C11.6402 20.0773 11.6935 18.1253 11.6935 16.248C11.6935 14.3493 11.5975 11.3413 11.4055 7.224H10.6695C10.3282 7.224 10.0188 7.11733 9.7415 6.904C9.4855 6.66933 9.3575 6.36 9.3575 5.976C9.3575 5.592 9.4855 5.29333 9.7415 5.08C10.0188 4.84533 10.3282 4.728 10.6695 4.728Z" fill="#B9466C"/>
</g>
<defs>
<clipPath id="clip0_161_2">
<rect width="32" height="32" fill="white"/>
</clipPath>
</defs>
</svg>
